# xmcd
#
# Track frame offsets: 
#        150
#        17673
#        39144
#        68331
#
# Disc length: 1109 seconds
#
# Revision: 0
# Processed by: cddbd v1.5.2PL0 Copyright (c) Steve Scherf et al.
# Submitted via: ExactAudioCopy v0.99pb5
#
DISCID=1f045304
DTITLE=Hawksley workman - We Will Still Need A song
DYEAR=2003
DGENRE=rock
TTITLE0=We Will Still Need A Song (Clean Radio Version)
TTITLE1=A Knife In The Country
TTITLE2=Love Will Tear Us Apart
TTITLE3=Where It Used To Snow
EXTD=
EXTT0=
EXTT1=
EXTT2=
EXTT3=
PLAYORDER=
